<svg xmlns:xlink="http://www.w3.org/1999/xlink" width="27" height="30" viewBox="0 0 27 30" fill="none" xmlns="http://www.w3.org/2000/svg">
<path d="M1.5 0H25.5C25.8978 0 26.2794 0.158035 26.5607 0.43934C26.842 0.720644 27 1.10218 27 1.5V28.5C27 28.8978 26.842 29.2794 26.5607 29.5607C26.2794 29.842 25.8978 30 25.5 30H1.5C1.10218 30 0.720644 29.842 0.43934 29.5607C0.158035 29.2794 0 28.8978 0 28.5V1.5C0 1.10218 0.158035 0.720644 0.43934 0.43934C0.720644 0.158035 1.10218 0 1.5 0ZM3 3V27H24V3H3ZM6 6H21V12H6V6ZM6 15H9V18H6V15ZM6 21H9V24H6V21ZM12 15H15V18H12V15ZM12 21H15V24H12V21ZM18 15H21V24H18V15Z" fill="currentcolor"></path>
</svg>