<svg xmlns:xlink="http://www.w3.org/1999/xlink" width="26" height="30" viewBox="0 0 26 30" fill="currentcolor" xmlns="http://www.w3.org/2000/svg">
        <path fill-rule="evenodd" clip-rule="evenodd" d="M14.4167 27.7499C14.4167 28.5333 15.0499 29.1666 15.8333 29.1666H20.0833C21.5864 29.1666 23.0272 28.5702 24.0897 27.5077C25.1522 26.4452 25.75 25.003 25.75 23.4999C25.75 22.6868 25.75 22.0833 25.75 22.0833C25.75 21.3013 25.1153 20.6666 24.3333 20.6666H15.8333C15.0499 20.6666 14.4167 21.3013 14.4167 22.0833V27.7499ZM10.1667 29.1666C10.9487 29.1666 11.5833 28.5333 11.5833 27.7499V13.5833C11.5833 12.8013 10.9487 12.1666 10.1667 12.1666H1.66667C0.88325 12.1666 0.25 12.8013 0.25 13.5833V23.4999C0.25 25.003 0.846413 26.4452 1.90891 27.5077C2.97141 28.5702 4.41358 29.1666 5.91667 29.1666H10.1667ZM22.9167 23.4999H17.25V26.3333H20.0833C20.8342 26.3333 21.5553 26.0357 22.0865 25.5045C22.6178 24.9732 22.9167 24.2522 22.9167 23.4999ZM8.75 26.3333V14.9999H3.08333V23.4999C3.08333 24.2522 3.38083 24.9732 3.9135 25.5045C4.44475 26.0357 5.16442 26.3333 5.91667 26.3333H8.75ZM15.8333 0.833252C15.0499 0.833252 14.4167 1.46792 14.4167 2.24992V16.4166C14.4167 17.2 15.0499 17.8333 15.8333 17.8333H24.3333C25.1153 17.8333 25.75 17.2 25.75 16.4166V6.49992C25.75 4.99825 25.1522 3.55608 24.0897 2.49358C23.0272 1.43108 21.5864 0.833252 20.0833 0.833252H15.8333ZM17.25 3.66659V14.9999H22.9167V6.49992C22.9167 5.74909 22.6178 5.028 22.0865 4.49675C21.5553 3.9655 20.8342 3.66659 20.0833 3.66659H17.25ZM11.5833 2.24992C11.5833 1.46792 10.9487 0.833252 10.1667 0.833252H5.91667C4.41358 0.833252 2.97141 1.43108 1.90891 2.49358C0.846413 3.55608 0.25 4.99825 0.25 6.49992V7.91659C0.25 8.7 0.88325 9.33325 1.66667 9.33325H10.1667C10.9487 9.33325 11.5833 8.7 11.5833 7.91659V2.24992ZM8.75 3.66659H5.91667C5.16442 3.66659 4.44475 3.9655 3.9135 4.49675C3.38083 5.028 3.08333 5.74909 3.08333 6.49992H8.75V3.66659Z" fill="currentcolor"></path>
    </svg>