<svg xmlns:xlink="http://www.w3.org/1999/xlink" width="18" height="14" viewBox="0 0 18 14" fill="none" xmlns="http://www.w3.org/2000/svg"><path d="M0.885773 7C1.59077 3.16 4.95602 0.25 9.00002 0.25C13.044 0.25 16.4085 3.16 17.1143 7C16.4093 10.84 13.044 13.75 9.00002 13.75C4.95602 13.75 1.59152 10.84 0.885773 7ZM9.00002 10.75C9.99459 10.75 10.9484 10.3549 11.6517 9.65165C12.3549 8.94839 12.75 7.99456 12.75 7C12.75 6.00544 12.3549 5.05161 11.6517 4.34835C10.9484 3.64509 9.99459 3.25 9.00002 3.25C8.00546 3.25 7.05163 3.64509 6.34837 4.34835C5.64511 5.05161 5.25002 6.00544 5.25002 7C5.25002 7.99456 5.64511 8.94839 6.34837 9.65165C7.05163 10.3549 8.00546 10.75 9.00002 10.75ZM9.00002 9.25C8.40329 9.25 7.83099 9.01295 7.40903 8.59099C6.98708 8.16903 6.75002 7.59674 6.75002 7C6.75002 6.40326 6.98708 5.83097 7.40903 5.40901C7.83099 4.98705 8.40329 4.75 9.00002 4.75C9.59676 4.75 10.1691 4.98705 10.591 5.40901C11.013 5.83097 11.25 6.40326 11.25 7C11.25 7.59674 11.013 8.16903 10.591 8.59099C10.1691 9.01295 9.59676 9.25 9.00002 9.25Z" fill="#858585"></path></svg>