<svg xmlns:xlink="http://www.w3.org/1999/xlink" width="40" height="40" viewBox="0 0 40 40" fill="none" xmlns="http://www.w3.org/2000/svg"><path d="M15.0348 24.9996V23.2496C16.9364 22.863 18.3682 21.1796 18.3682 19.1663C18.3682 16.8696 16.4998 14.9996 14.2015 14.9996H12.5349C12.0765 14.9996 11.7015 14.6263 11.7015 14.1663C11.7015 13.7063 12.0765 13.3329 12.5349 13.3329H18.3682V9.99965H15.0349V8.33301H11.7015V10.083C9.80316 10.4696 8.36816 12.153 8.36816 14.1664C8.36816 16.463 10.2382 18.333 12.5348 18.333H14.2014C14.6614 18.333 15.0348 18.7064 15.0348 19.1664C15.0348 19.6264 14.6614 19.9996 14.2014 19.9996H8.36816V23.333H11.7015V24.9996H15.0348Z" fill="#EE4444"></path><path d="M8.33336 26.6667C8.08 26.6667 7.82172 26.725 7.58836 26.8417L3.33336 28.97V4.36502L7.58836 6.48838C8.12172 6.75674 8.76 6.71674 9.25836 6.38502L13.3334 3.67002L17.4084 6.38666C17.9067 6.7183 18.545 6.7583 19.0784 6.49002L23.3334 4.36502V10H26.6667V1.66666C26.6667 1.0883 26.3667 0.553301 25.8751 0.250019C25.3834 -0.0549805 24.7701 -0.0816211 24.2534 0.17502L18.4534 3.07838L14.2584 0.28002C13.6984 -0.0933398 12.97 -0.0933398 12.41 0.28002L8.21336 3.07838L2.41336 0.17502C1.89664 -0.0816211 1.28336 -0.0549805 0.791641 0.250019C0.3 0.553379 0 1.08838 0 1.66666V31.6667C0 32.245 0.3 32.78 0.791641 33.0867C1.05828 33.25 1.36164 33.3333 1.66664 33.3333C1.92 33.3333 2.17828 33.2749 2.41164 33.1567L8.21164 30.2567L10.035 31.4717V27.465L9.25664 26.945C8.98 26.7617 8.65664 26.6667 8.33336 26.6667Z" fill="#EE4444"></path><path d="M28.3675 25H25.0342V30H28.3675V25Z" fill="#EE4444"></path><path d="M26.7008 35.0003C27.6213 35.0003 28.3675 34.2541 28.3675 33.3336C28.3675 32.4132 27.6213 31.667 26.7008 31.667C25.7804 31.667 25.0342 32.4132 25.0342 33.3336C25.0342 34.2541 25.7804 35.0003 26.7008 35.0003Z" fill="#EE4444"></path><path d="M39.8023 37.5432L28.1357 15.8764C27.5523 14.7964 25.7823 14.7964 25.199 15.8764L13.5323 37.5432C13.2557 38.0598 13.2689 38.6832 13.5689 39.1865C13.8689 39.6899 14.4139 39.9999 15.0006 39.9999H38.334C38.9206 39.9999 39.464 39.6915 39.764 39.1883C40.064 38.6848 40.079 38.0598 39.8023 37.5432ZM17.7907 36.6665L26.6673 20.1831L35.544 36.6665H17.7907Z" fill="#EE4444"></path></svg>