<svg xmlns:xlink="http://www.w3.org/1999/xlink" width="27" height="27" viewBox="0 0 27 27" fill="none" xmlns="http://www.w3.org/2000/svg"><path d="M24.7576 7.44232C23.6963 5.19284 22.0156 3.30388 19.8981 1.97857C16.953 0.140392 13.4696 -0.443559 10.0827 0.338427C6.70083 1.11534 3.8217 3.16678 1.98352 6.11192C0.140268 9.05707 -0.443683 12.5405 0.338304 15.9274C1.12029 19.3092 3.17173 22.1883 6.1118 24.0265C8.18356 25.3214 10.56 26.0069 12.9923 26.0069H13.1497C15.5718 25.9764 17.9279 25.2757 19.9692 23.9859C20.5633 23.6101 20.736 22.8281 20.3602 22.234C19.9844 21.6399 19.2025 21.4673 18.6083 21.8431C16.9682 22.884 15.0691 23.4476 13.1192 23.473C11.1185 23.4984 9.16358 22.9449 7.45743 21.8837C5.08608 20.4009 3.43578 18.0855 2.81121 15.3637C2.18664 12.6319 2.6538 9.8289 4.13652 7.45755C7.19338 2.5676 13.6625 1.07471 18.5525 4.13157C20.2586 5.19791 21.6093 6.71619 22.4624 8.52389C23.2952 10.2859 23.6202 12.2409 23.4018 14.1704C23.3257 14.8661 23.8233 15.4958 24.524 15.5719C25.2197 15.6481 25.8493 15.1505 25.9255 14.4497C26.1946 12.0581 25.7884 9.63086 24.7576 7.44232Z" fill="#FF2E2E"></path><path d="M17.41 8.59466C16.9124 8.09703 16.1101 8.09703 15.6125 8.59466L13.0025 11.2097L10.3925 8.59973C9.89483 8.10211 9.09253 8.10211 8.5949 8.59973C8.09727 9.09736 8.09727 9.89966 8.5949 10.3973L11.2049 13.0073L8.5949 15.6173C8.09727 16.1149 8.09727 16.9172 8.5949 17.4148C8.84371 17.6637 9.1687 17.7855 9.49368 17.7855C9.81866 17.7855 10.1436 17.6637 10.3925 17.4148L13.0025 14.8048L15.6125 17.4148C15.8613 17.6637 16.1863 17.7855 16.5112 17.7855C16.8362 17.7855 17.1612 17.6637 17.41 17.4148C17.9076 16.9172 17.9076 16.1149 17.41 15.6173L14.8 13.0022L17.41 10.3922C17.9076 9.89458 17.9076 9.09228 17.41 8.59466Z" fill="#FF2E2E"></path></svg>