<svg xmlns:xlink="http://www.w3.org/1999/xlink" width="40" height="40" viewBox="0 0 40 40" fill="none" xmlns="http://www.w3.org/2000/svg"><path d="M18.3331 19.1673C18.3331 16.8706 16.4647 15.0006 14.1664 15.0006H12.4997C12.0414 15.0006 11.6664 14.6273 11.6664 14.1673C11.6664 13.7073 12.0414 13.3339 12.4997 13.3339H18.3331V10.0006H14.9997V8.33398H11.6664V10.084C9.76801 10.4723 8.33301 12.154 8.33301 14.1673C8.33301 16.464 10.203 18.334 12.4996 18.334H14.1663C14.6263 18.334 14.9996 18.7073 14.9996 19.1673C14.9996 19.6273 14.6264 20.0006 14.1664 20.0006H8.33301V23.334H11.6664V25.0006H14.9997V23.2506C16.9014 22.8623 18.3331 21.1806 18.3331 19.1673Z" fill="#9BABC5"></path><path d="M8.33336 26.6667C8.08 26.6667 7.82336 26.725 7.58836 26.8417L3.33336 28.97V4.36502L7.58836 6.48838C8.12172 6.75674 8.76 6.71674 9.25836 6.38502L13.3334 3.67002L17.4084 6.38666C17.9067 6.7183 18.545 6.7583 19.0784 6.49002L23.3334 4.36502V13.3334H26.6667V1.66666C26.6667 1.0883 26.3667 0.553301 25.8767 0.25002C25.3851 -0.0549805 24.7717 -0.0816211 24.2534 0.17502L18.4534 3.07838L14.2584 0.28002C13.6984 -0.0933398 12.97 -0.0933398 12.41 0.28002L8.215 3.07838L2.41164 0.17502C1.89836 -0.0816211 1.28336 -0.0549805 0.791641 0.25002C0.3 0.553379 0 1.08838 0 1.66666V31.6667C0 32.245 0.3 32.78 0.791641 33.0867C1.05828 33.25 1.36328 33.3333 1.66664 33.3333C1.92164 33.3333 2.17828 33.2749 2.41164 33.1567L8.21328 30.2567L12.4083 33.0533C12.6883 33.2399 13.0116 33.3333 13.3333 33.3333V29.6649L9.25828 26.9483C8.98164 26.7617 8.65836 26.6667 8.33336 26.6667Z" fill="#9BABC5"></path><path d="M28.3336 16.667C21.902 16.667 16.667 21.9004 16.667 28.3336C16.667 34.7669 21.9019 40.0004 28.3336 40.0004C34.7669 40.0004 40.0003 34.767 40.0003 28.3337C40.0003 21.9004 34.7669 16.667 28.3336 16.667ZM28.3336 36.667C23.7403 36.667 20.0003 32.9287 20.0003 28.3337C20.0003 23.7387 23.7403 20.0004 28.3336 20.0004C32.9303 20.0004 36.667 23.7387 36.667 28.3337C36.6669 32.9287 32.9303 36.667 28.3336 36.667Z" fill="#9BABC5"></path><path d="M30.0004 21.667H26.667V30.0004H33.3337V26.667H30.0004V21.667Z" fill="#9BABC5"></path></svg>