<svg xmlns:xlink="http://www.w3.org/1999/xlink" width="55" height="55" viewBox="0 0 55 55" fill="none" xmlns="http://www.w3.org/2000/svg"><rect x="2" y="2" width="51" height="51" rx="25.5" fill="#00CEDE" fill-opacity="0.1"></rect><rect x="1" y="1" width="53" height="53" rx="26.5" stroke="#00CEDE" stroke-opacity="0.1" stroke-width="2px" fill="none"></rect><g clip-path="url(#clip0_560_168)" fill="none"><path d="M21.5615 31.0285C20.4658 31.0285 20.3343 30.5245 20.3343 30.5245L16.061 38.8956L19.4796 38.5231L21.3642 41.3719C21.3642 41.3719 25.2869 33.1541 25.2869 33.2199C23.2708 33.1541 24.0597 31.0942 21.5615 31.0285ZM31.1598 31.927C31.6858 31.0285 32.4747 30.5902 33.5046 30.5683C34.5346 30.5464 35.0605 30.0204 35.0824 28.9905C35.1043 27.9605 35.5426 27.1716 36.4411 26.6457C37.3396 26.1197 37.5149 25.3966 37.0109 24.4981C36.5068 23.5996 36.5068 22.6792 37.0109 21.7807C37.5149 20.8823 37.3177 20.1591 36.4411 19.6332C35.5426 19.1072 35.1043 18.3183 35.0824 17.2884C35.0605 16.2584 34.5346 15.7325 33.5046 15.7106C32.4527 15.6667 31.6858 15.2284 31.1598 14.33C30.6339 13.4315 29.9107 13.2562 29.0122 13.7602C28.1138 14.2642 27.2153 14.2642 26.2949 13.7602C25.3964 13.2562 24.6733 13.4534 24.1473 14.33C23.6214 15.2284 22.8325 15.6667 21.8025 15.6886C20.7726 15.7106 20.2466 16.2365 20.2247 17.2664C20.2028 18.2964 19.7645 19.0853 18.866 19.6113C17.9676 20.1372 17.7922 20.8604 18.2963 21.7588C18.8003 22.6573 18.8003 23.5777 18.2963 24.4762C17.7922 25.3747 17.9895 26.0978 18.866 26.6238C19.7645 27.1497 20.2028 27.9386 20.2247 28.9686C20.2466 29.9985 20.7726 30.5245 21.8025 30.5464C22.8325 30.5683 23.6214 31.0066 24.1473 31.905C24.6733 32.8035 25.3964 33.0007 26.2949 32.4748C27.1934 31.9708 28.0919 31.9708 29.0122 32.4748C29.9107 33.0227 30.612 32.8254 31.1598 31.927ZM34.6222 30.8532C31.5104 31.1819 32.146 31.9489 31.4447 32.5625C30.6339 33.439 29.6039 33.2637 29.6039 33.2637L34.4031 41.5253L35.5865 38.4574L38.9393 38.8956L34.6222 30.8532Z" fill="#00CDDE"></path></g><circle cx="47.2626" cy="9.0123" r="5.4625" fill="#FF9900" stroke="#F4FAFF" stroke-width="2px"></circle><defs><clipPath id="clip0_560_168"><rect width="28.05" height="28.05" fill="white" transform="translate(13.4751 13.4751)"></rect></clipPath></defs></svg>