<svg xmlns:xlink="http://www.w3.org/1999/xlink" width="30" height="30" viewBox="0 0 30 30" fill="none" xmlns="http://www.w3.org/2000/svg">
<path fill-rule="evenodd" clip-rule="evenodd" d="M10.2189 3.45833C11.2247 1.88016 12.9899 0.833252 15.0002 0.833252C17.0104 0.833252 18.7756 1.88016 19.7814 3.45833C21.6075 3.05316 23.5965 3.56175 25.0174 4.98267C26.4383 6.405 26.9469 8.39257 26.5418 10.2201C28.1199 11.2259 29.1668 12.9911 29.1668 14.9999C29.1668 17.0102 28.1199 18.7753 26.5418 19.7812C26.9469 21.6087 26.4383 23.5963 25.0174 25.0172C23.5965 26.4395 21.6075 26.9467 19.7814 26.5429C18.7756 28.1211 17.0104 29.1666 15.0002 29.1666C12.9899 29.1666 11.2247 28.1211 10.2189 26.5429C8.39141 26.9467 6.40383 26.4395 4.98291 25.0172C3.562 23.5963 3.05342 21.6087 3.45717 19.7812C1.88042 18.7753 0.833496 17.0102 0.833496 14.9999C0.833496 12.9911 1.88042 11.2259 3.45717 10.2201C3.05342 8.39257 3.562 6.405 4.98291 4.98267C6.40383 3.56175 8.39141 3.05316 10.2189 3.45833ZM10.294 6.47441C10.6652 6.66708 11.1029 6.68549 11.4897 6.5254C11.8764 6.36532 12.1725 6.04233 12.2986 5.64425C12.6613 4.49816 13.7337 3.66659 15.0002 3.66659C16.2667 3.66659 17.3391 4.49816 17.7018 5.64425C17.8278 6.04233 18.1239 6.36532 18.5107 6.5254C18.8974 6.68549 19.3337 6.66708 19.7049 6.47441C20.7731 5.92049 22.1189 6.09049 23.0143 6.98724C23.9096 7.88258 24.081 9.22842 23.5271 10.2952C23.3344 10.6663 23.3146 11.1041 23.4747 11.4894C23.6348 11.8762 23.9578 12.1723 24.3558 12.2983C25.5033 12.661 26.3335 13.7334 26.3335 14.9999C26.3335 16.2664 25.5033 17.3402 24.3558 17.7029C23.9578 17.829 23.6348 18.1251 23.4747 18.5104C23.3146 18.8972 23.3344 19.3349 23.5271 19.7061C24.081 20.7728 23.9096 22.1187 23.0143 23.014C22.1189 23.9093 20.7731 24.0807 19.7049 23.5268C19.3337 23.3342 18.8974 23.3158 18.5107 23.4758C18.1239 23.6359 17.8278 23.9589 17.7018 24.357C17.3391 25.5031 16.2667 26.3333 15.0002 26.3333C13.7337 26.3333 12.6613 25.5031 12.2986 24.357C12.1725 23.9589 11.8764 23.6359 11.4897 23.4758C11.1029 23.3158 10.6652 23.3342 10.294 23.5268C9.22726 24.0807 7.88142 23.9093 6.98608 23.014C6.09075 22.1187 5.91933 20.7728 6.47325 19.7061C6.66592 19.3349 6.68434 18.8972 6.52567 18.5104C6.36559 18.1251 6.04259 17.829 5.64309 17.7029C4.497 17.3402 3.66683 16.2664 3.66683 14.9999C3.66683 13.7334 4.497 12.661 5.64309 12.2983C6.04259 12.1723 6.36559 11.8762 6.52567 11.4894C6.68434 11.1041 6.66592 10.6663 6.47325 10.2952C5.91933 9.22842 6.09075 7.88258 6.98608 6.98724C7.88142 6.09049 9.22726 5.92049 10.294 6.47441ZM15.0002 9.33325C11.8722 9.33325 9.3335 11.8733 9.3335 14.9999C9.3335 18.1279 11.8722 20.6666 15.0002 20.6666C18.1282 20.6666 20.6668 18.1279 20.6668 14.9999C20.6668 11.8733 18.1282 9.33325 15.0002 9.33325ZM15.0002 12.1666C16.5642 12.1666 17.8335 13.4373 17.8335 14.9999C17.8335 16.5639 16.5642 17.8333 15.0002 17.8333C13.4362 17.8333 12.1668 16.5639 12.1668 14.9999C12.1668 13.4373 13.4362 12.1666 15.0002 12.1666Z" fill="currentcolor"></path>
</svg>