<svg xmlns:xlink="http://www.w3.org/1999/xlink" width="30" height="24" viewBox="0 0 30 24" fill="none" xmlns="http://www.w3.org/2000/svg">
<path fill-rule="evenodd" clip-rule="evenodd" d="M29.1674 6.33315C29.1674 3.20388 26.63 0.666748 23.5005 0.666748C18.7828 0.666748 11.2161 0.666748 6.49988 0.666748C3.37035 0.666748 0.833008 3.20388 0.833008 6.33315V17.666C0.833008 20.7952 3.37035 23.3324 6.49988 23.3324H23.5005C26.63 23.3324 29.1674 20.7952 29.1674 17.666V6.33315ZM26.3339 17.666H3.66645C3.66645 19.2313 4.93441 20.4992 6.49988 20.4992H23.5005C25.0646 20.4992 26.3339 19.2313 26.3339 17.666ZM3.66645 13.4162V14.8328H26.3339V13.4162H3.66645ZM26.3339 10.583V6.33315C26.3339 4.76922 25.0646 3.49995 23.5005 3.49995C18.7828 3.49995 11.2161 3.49995 6.49988 3.49995C4.93441 3.49995 3.66645 4.76922 3.66645 6.33315V10.583H26.3339Z" fill="#BFBFBF"></path>
</svg>