<svg xmlns:xlink="http://www.w3.org/1999/xlink" width="44" height="44" viewBox="0 0 44 44" fill="none" xmlns="http://www.w3.org/2000/svg"><g clip-path="url(#clip0_560_198)" fill="none"><path d="M33.9465 19.2138C33.8181 18.8187 33.4767 18.5308 33.0657 18.4712L26.0956 17.4585L22.9784 11.1419C22.7946 10.7695 22.4152 10.5337 22 10.5337C21.5846 10.5337 21.2053 10.7695 21.0215 11.1419L17.9046 17.4584L10.9342 18.4711C10.5233 18.5308 10.1817 18.8187 10.0534 19.2137C9.92511 19.6087 10.0321 20.0423 10.3295 20.3322L15.3733 25.2481L14.1821 32.1909C14.112 32.6003 14.2802 33.0139 14.6162 33.2581C14.8063 33.3962 15.0314 33.4664 15.2576 33.4664C15.4312 33.4664 15.6056 33.4251 15.7653 33.3411L21.9999 30.0635L28.2344 33.3411C28.3951 33.4256 28.5709 33.4658 28.7452 33.4664C29.3471 33.4656 29.8347 32.9774 29.8347 32.3753C29.8347 32.2916 29.8253 32.2099 29.8074 32.1315L28.6266 25.2482L33.6703 20.3322C33.9678 20.0423 34.0748 19.6087 33.9465 19.2138Z" fill="#FFB669"></path></g><rect x="1" y="1" width="42" height="42" rx="21" stroke="#00CEDE" stroke-opacity="0.1" stroke-width="2px" fill="none"></rect><defs><clipPath id="clip0_560_198"><rect width="24" height="24" fill="white" transform="translate(10 10)"></rect></clipPath></defs></svg>