<svg xmlns:xlink="http://www.w3.org/1999/xlink" width="80" height="80" viewBox="0 0 80 80" fill="none" xmlns="http://www.w3.org/2000/svg">
<rect x="0.5" y="0.5" width="79" height="79" rx="39.5" stroke="#1B507E" fill="none"></rect>
<g clippath="url(#clip0_474_354)" fill="none">
<path fill-rule="evenodd" clip-rule="evenodd" d="M53.1674 35.333C53.1674 32.2038 50.63 29.6666 47.5005 29.6666C42.7828 29.6666 35.2161 29.6666 30.4999 29.6666C27.3704 29.6666 24.833 32.2038 24.833 35.333V46.6658C24.833 49.7951 27.3704 52.3322 30.4999 52.3322H47.5005C50.63 52.3322 53.1674 49.7951 53.1674 46.6658V35.333ZM50.3339 46.6658H27.6664C27.6664 48.2312 28.9344 49.499 30.4999 49.499H47.5005C49.0646 49.499 50.3339 48.2312 50.3339 46.6658ZM27.6664 42.416V43.8326H50.3339V42.416H27.6664ZM50.3339 39.5828V35.333C50.3339 33.7691 49.0646 32.4998 47.5005 32.4998C42.7828 32.4998 35.2161 32.4998 30.4999 32.4998C28.9344 32.4998 27.6664 33.7691 27.6664 35.333V39.5828H50.3339Z" fill="#2BC155"></path>
</g>
<defs>
<clipPath id="clip0_474_354">
<rect width="34" height="34" fill="white" transform="translate(23 23)"></rect>
</clipPath>
</defs>
</svg>