<svg xmlns:xlink="http://www.w3.org/1999/xlink" width="40" height="40" viewBox="0 0 40 40" fill="none" xmlns="http://www.w3.org/2000/svg"><path d="M12.6538 13.4983H18.5593V10.1238H15.1847V8.43652H11.8102V10.2082C9.8867 10.6013 8.43563 12.3037 8.43563 14.342C8.43563 16.667 10.3271 18.5601 12.6538 18.5601H14.341C14.805 18.5601 15.1847 18.9381 15.1847 19.4038C15.1847 19.8695 14.805 20.2474 14.341 20.2474H8.43555V23.622H11.8101V25.3092H15.1847V23.5376C17.1082 23.1462 18.5593 21.442 18.5593 19.4038C18.5593 17.0788 16.6679 15.1856 14.3412 15.1856H12.6538C12.1898 15.1856 11.8102 14.8077 11.8102 14.342C11.8102 13.8763 12.1898 13.4983 12.6538 13.4983Z" fill="#2BC155"></path><path d="M26.9962 25.309V1.68734C26.9962 1.10183 26.6925 0.560219 26.1948 0.253189C25.6971 -0.0555809 25.0762 -0.0825508 24.5531 0.177262L18.6814 3.11651L14.4346 0.283481C13.8677 -0.0944935 13.1303 -0.0944935 12.5634 0.283481L8.31488 3.11643L2.44319 0.177183C1.92016 -0.08263 1.29922 -0.0556601 0.801504 0.25311C0.303708 0.560219 0 1.10183 0 1.68734V32.0581C0 32.6436 0.303708 33.1853 0.801425 33.4957C1.07136 33.6611 1.37847 33.7454 1.68724 33.7454C1.94373 33.7454 2.2052 33.6863 2.44145 33.5666L8.31314 30.6307L12.5616 33.4619C13.1286 33.8399 13.8659 33.8399 14.4329 33.4619L18.6797 30.6307L21.9344 32.2589V28.4845L19.3141 27.1735C18.7708 26.9036 18.1246 26.9441 17.6234 27.2798L13.4981 30.03L9.37271 27.2798C9.09091 27.0925 8.76364 26.9963 8.43628 26.9963C8.17979 26.9963 7.91831 27.0554 7.68207 27.1735L3.37448 29.3282V4.41897L7.68207 6.56857C8.22202 6.84025 8.86819 6.79976 9.37271 6.46394L13.4981 3.71538L17.6234 6.4656C18.1262 6.80134 18.7741 6.84183 19.3141 6.57024L23.6217 4.41897V25.309H26.9962Z" fill="#2BC155"></path><path d="M37.6144 27.4922L30.3709 34.7339L26.5021 30.8667L24.1162 33.2525L30.3709 39.5055L40.0001 29.878L37.6144 27.4922Z" fill="#2BC155"></path></svg>