<svg xmlns:xlink="http://www.w3.org/1999/xlink" width="24" height="30" viewBox="0 0 24 30" fill="none" xmlns="http://www.w3.org/2000/svg">
<path fill-rule="evenodd" clip-rule="evenodd" d="M14.9777 22.9631C18.202 21.7561 20.5013 18.6437 20.5013 15C20.5013 12.654 19.5479 10.529 18.0094 8.99048C17.4569 8.43798 17.4569 7.53983 18.0094 6.98733C18.5633 6.43483 19.4601 6.43483 20.014 6.98733C22.0653 9.03866 23.3346 11.872 23.3346 15C23.3346 19.9342 20.1741 24.1361 15.7682 25.6902L17.0588 26.5855C17.7006 27.0317 17.8606 27.9143 17.4144 28.5575C16.9696 29.1992 16.0856 29.3593 15.4438 28.9131L11.1938 25.965C10.5535 25.5216 10.392 24.6432 10.8326 24.0001L13.6659 19.8662C14.1079 19.2202 14.9905 19.0559 15.6351 19.4979C16.2796 19.9399 16.444 20.8225 16.002 21.4671L14.9777 22.9631ZM8.26697 4.29708L6.96505 3.42865C6.3148 2.99515 6.13772 2.11398 6.57122 1.46373C7.00614 0.813482 7.88589 0.637815 8.53614 1.07131L12.7861 3.90465C13.4378 4.33815 13.6135 5.21791 13.18 5.86958L10.3466 10.1196C9.91172 10.7698 9.03197 10.9455 8.38172 10.512C7.73147 10.0785 7.55439 9.19733 7.98789 8.54708L8.98663 7.05108C5.78072 8.26799 3.5013 11.3691 3.5013 15C3.5013 17.346 4.4533 19.4696 5.9918 21.0095C6.5443 21.562 6.5443 22.4587 5.9918 23.0127C5.4393 23.5652 4.54113 23.5652 3.98863 23.0127C1.9373 20.9613 0.667969 18.128 0.667969 15C0.667969 10.053 3.84413 5.84124 8.26697 4.29708Z" fill="#BFBFBF"></path>
</svg>