<svg xmlns:xlink="http://www.w3.org/1999/xlink" width="32" height="30" viewBox="0 0 32 30" fill="none" xmlns="http://www.w3.org/2000/svg">
<path d="M28.7498 13.8439V7.91659C28.7498 7.54086 28.6006 7.18053 28.3349 6.91485C28.0692 6.64917 27.7089 6.49992 27.3332 6.49992H4.6665C4.29078 6.49992 3.93045 6.35066 3.66477 6.08499C3.39909 5.81931 3.24984 5.45898 3.24984 5.08325C3.24984 4.70753 3.39909 4.34719 3.66477 4.08152C3.93045 3.81584 4.29078 3.66659 4.6665 3.66659H27.3332C27.7089 3.66659 28.0692 3.51733 28.3349 3.25165C28.6006 2.98598 28.7498 2.62564 28.7498 2.24992C28.7498 1.8742 28.6006 1.51386 28.3349 1.24818C28.0692 0.982507 27.7089 0.833252 27.3332 0.833252H4.6665C3.53933 0.833252 2.45833 1.28102 1.6613 2.07805C0.86427 2.87508 0.416504 3.95608 0.416504 5.08325V24.9166C0.416504 26.0438 0.86427 27.1248 1.6613 27.9218C2.45833 28.7188 3.53933 29.1666 4.6665 29.1666H27.3332C27.7089 29.1666 28.0692 29.0173 28.3349 28.7517C28.6006 28.486 28.7498 28.1256 28.7498 27.7499V21.8226C29.5779 21.5341 30.2957 20.995 30.8037 20.2802C31.3116 19.5654 31.5845 18.7102 31.5845 17.8333C31.5845 16.9563 31.3116 16.1011 30.8037 15.3863C30.2957 14.6715 29.5779 14.1324 28.7498 13.8439ZM25.9165 26.3333H4.6665C4.29078 26.3333 3.93045 26.184 3.66477 25.9183C3.39909 25.6526 3.24984 25.2923 3.24984 24.9166V9.07259C3.70353 9.24037 4.1828 9.32856 4.6665 9.33325H25.9165V13.5833H21.6665C20.5393 13.5833 19.4583 14.031 18.6613 14.828C17.8643 15.6251 17.4165 16.7061 17.4165 17.8333C17.4165 18.9604 17.8643 20.0414 18.6613 20.8385C19.4583 21.6355 20.5393 22.0833 21.6665 22.0833H25.9165V26.3333ZM27.3332 19.2499H21.6665C21.2908 19.2499 20.9304 19.1007 20.6648 18.835C20.3991 18.5693 20.2498 18.209 20.2498 17.8333C20.2498 17.4575 20.3991 17.0972 20.6648 16.8315C20.9304 16.5658 21.2908 16.4166 21.6665 16.4166H27.3332C27.7089 16.4166 28.0692 16.5658 28.3349 16.8315C28.6006 17.0972 28.7498 17.4575 28.7498 17.8333C28.7498 18.209 28.6006 18.5693 28.3349 18.835C28.0692 19.1007 27.7089 19.2499 27.3332 19.2499Z" fill="currentcolor"></path>
</svg>