<svg xmlns:xlink="http://www.w3.org/1999/xlink" width="26" height="26" viewBox="0 0 26 26" fill="none" xmlns="http://www.w3.org/2000/svg"><path d="M24.7516 7.4405C23.6906 5.19157 22.0102 3.30308 19.8933 1.97809C16.9488 0.140357 13.4612 -0.443451 10.0802 0.338345C6.69919 1.11506 3.82077 3.16601 1.98304 6.11043C0.140234 9.05486 -0.443574 12.5374 0.338221 15.9235C1.12002 19.3045 3.17096 22.1829 6.11031 24.0207C8.18156 25.3152 10.5574 26.0005 12.9891 26.0005H13.1465C15.568 25.9701 17.9235 25.2695 19.9643 23.9801C20.5583 23.6044 20.7309 22.8226 20.3552 22.2286C19.9796 21.6347 19.1978 21.4621 18.6038 21.8377C16.9641 22.8784 15.0654 23.4419 13.116 23.4673C11.1158 23.4927 9.16134 22.9393 7.45561 21.8783C5.08484 20.396 3.43494 18.081 2.81052 15.36C2.1861 12.6389 2.65315 9.83666 4.13551 7.46588C7.19162 2.57712 13.6592 1.0846 18.548 4.14072C20.2537 5.2068 21.6041 6.7247 22.4569 8.53197C23.2895 10.2935 23.6144 12.248 23.3961 14.1771C23.32 14.8726 23.8175 15.5021 24.518 15.5783C25.2135 15.6544 25.843 15.1569 25.9192 14.4564C26.1882 12.0551 25.7821 9.62851 24.7516 7.4405V7.4405Z" fill="#00CEDE"></path><path d="M17.1996 8.59372L11.0766 14.7167L8.80718 12.4472C8.30962 11.9497 7.50744 11.9497 7.00989 12.4472C6.51233 12.9448 6.51233 13.747 7.00989 14.2445L10.178 17.4126C10.4268 17.6614 10.7517 17.7833 11.0766 17.7833C11.4016 17.7833 11.7265 17.6614 11.9753 17.4126L18.9918 10.391C19.4894 9.89346 19.4894 9.09128 18.9918 8.59372C18.4943 8.10125 17.6921 8.10125 17.1996 8.59372V8.59372Z" fill="#00CEDE"></path></svg>